HIERARCHY
ROOT Hips
{
  OFFSET -32.5998 29.0326 120.673
  CHANNELS 6 Xposition Yposition Zposition Zrotation Xrotation Yrotation
  JOINT LeftUpLeg
  {
    OFFSET 8.64259 1.95398 -2.38835
    CHANNELS 3 Zrotation Xrotation Yrotation
    JOINT LeftLeg
    {
      OFFSET 43.7702 0 0
      CHANNELS 3 Zrotation Xrotation Yrotation
      JOINT LeftFoot
      {
        OFFSET 40.6238 0 0
        CHANNELS 3 Zrotation Xrotation Yrotation
        JOINT LeftToeBase
        {
          OFFSET 12.7242 0 0
          CHANNELS 3 Zrotation Xrotation Yrotation
          End Site
          {
            OFFSET 0 0 0
          }
        }
      }
    }
  }
  JOINT RightUpLeg
  {
    OFFSET -8.2249 1.95398 -2.59336
    CHANNELS 3 Zrotation Xrotation Yrotation
    JOINT RightLeg
    {
      OFFSET 43.5653 0 0
      CHANNELS 3 Zrotation Xrotation Yrotation
      JOINT RightFoot
      {
        OFFSET 40.6238 0 0
        CHANNELS 3 Zrotation Xrotation Yrotation
        JOINT RightToeBase
        {
          OFFSET 12.7242 0 0
          CHANNELS 3 Zrotation Xrotation Yrotation
          End Site
          {
            OFFSET 0 0 0
          }
        }
      }
    }
  }
  JOINT Spine
  {
    OFFSET 0.165834 0.87714 6.61349
    CHANNELS 3 Zrotation Xrotation Yrotation
    JOINT Spine1
    {
      OFFSET 7.38963 1.71661e-005 0
      CHANNELS 3 Zrotation Xrotation Yrotation
      JOINT Spine2
      {
        OFFSET 11.9445 1.14441e-005 0
        CHANNELS 3 Zrotation Xrotation Yrotation
        JOINT Spine3
        {
          OFFSET 14.7254 4.19617e-005 0
          CHANNELS 3 Zrotation Xrotation Yrotation
          JOINT Spine4
          {
            OFFSET 10.9679 0 0
            CHANNELS 3 Zrotation Xrotation Yrotation
            JOINT RightShoulder
            {
              OFFSET 2.46616 -1.6653 3.69651
              CHANNELS 3 Zrotation Xrotation Yrotation
              JOINT RightArm
              {
                OFFSET 13.0012 0 0
                CHANNELS 3 Zrotation Xrotation Yrotation
                JOINT RightForeArm
                {
                  OFFSET 28.7848 1.62311e-005 0
                  CHANNELS 3 Zrotation Xrotation Yrotation
                  JOINT RightHand
                  {
                    OFFSET 26.5688 1.62095e-005 0
                    CHANNELS 3 Zrotation Xrotation Yrotation
                    End Site
                    {
                      OFFSET 0 0 0
                    }
                  }
                }
              }
            }
            JOINT LeftShoulder
            {
              OFFSET 2.38034 -1.29275 -3.7523
              CHANNELS 3 Zrotation Xrotation Yrotation
              JOINT LeftArm
              {
                OFFSET 16.3182 6.07031e-005 0
                CHANNELS 3 Zrotation Xrotation Yrotation
                JOINT LeftForeArm
                {
                  OFFSET 27.0901 0 0
                  CHANNELS 3 Zrotation Xrotation Yrotation
                  JOINT LeftHand
                  {
                    OFFSET 24.5451 1.51738e-005 0
                    CHANNELS 3 Zrotation Xrotation Yrotation
                    End Site
                    {
                      OFFSET 0 0 0
                    }
                  }
                }
              }
            }
            JOINT Neck
            {
              OFFSET 5.0226 -0.0266342 0
              CHANNELS 3 Zrotation Xrotation Yrotation
              JOINT Head
              {
                OFFSET 6.69364 2.86102e-005 0
                CHANNELS 3 Zrotation Xrotation Yrotation
                End Site
                {
                  OFFSET 0 0 0
                }
              }
            }
          }
        }
      }
    }
  }
}
MOTION
Frames:	17
Frame Time:	0.0416667
-5963.98 522.073 -5295.35 97.6797 -33.8487 96.0388 -150.661 -32.073 162.144 -2.97646 23.2178 -0.19996 92.193 -39.947 -21.1044 5.08283 17.2832 -44.0255 178.9 22.4373 50.1114 -5.94684 -9.64071 4.55629 57.577 27.5283 21.2609 5.37449 -8.75718 43.2573 0.0294261 8.42176 -90.5343 10.0292 -0.184432 -1.04596 -1.64213 -0.230286 -1.03685 -24.1738 0.138419 -1.05304 -4.16117 0.138423 -1.05304 93.5604 -19.3703 -103.177 54.8762 -5.26353 -12.0458 -10.8047 -29.655 -23.1949 -9.44923 -0.621081 2.56868 -84.7405 -49.5878 86.5794 -26.9983 9.49119 -11.8069 2.15024 17.3002 -25.276 4.5626 0.258188 1.33689 21.8984 -3.572 1.78257 -11.4673 -3.72112 -4.41415 
-5777.69 507.625 -5128.95 97.2681 -36.1829 93.4443 -175.523 1.9457 147.586 -3.77755 16.6927 -0.605592 54.7807 -42.1945 -38.0013 6.37496 17.2487 -44.2145 170.569 -3.05053 43.1773 -4.08735 -13.0651 7.50342 88.6882 29.7262 10.9491 5.42463 -8.47418 42.5845 0.580335 8.3644 -90.1466 10.148 1.08958 -0.383464 -1.52256 1.07165 -0.431055 -24.0614 1.15445 -0.0382269 -4.04873 1.15444 -0.0382427 93.5701 -18.725 -103.414 52.4974 -6.22588 -15.9721 -11.3154 -29.0378 -24.9331 -11.539 -0.616938 1.12065 -84.3301 -49.6639 87.2112 -26.6877 6.74795 -8.57631 2.20934 13.8163 -25.7655 6.95017 0.427675 1.99561 20.4729 -4.18616 2.23596 -12.3294 -4.37205 -4.91792 
-5591.17 489.072 -4945.3 97.0804 -39.1417 92.3108 171.993 41.5732 133.065 -5.38681 11.9666 -1.73646 27.7415 -26.4242 -36.0623 8.28184 15.693 -41.6133 158.522 -28.1183 36.9116 -1.79557 -20.0762 11.4922 117.722 18.313 1.1587 8.21912 -8.57059 42.5519 1.02113 8.4443 -89.9342 9.98682 2.06508 -0.0391885 -1.68249 2.06135 -0.130082 -24.2301 1.98134 0.583516 -4.21744 1.98134 0.583506 93.4218 -18.0974 -104.038 48.5136 -7.2437 -21.1723 -14.1011 -32.2081 -28.7531 -13.8372 -0.831907 1.84442 -84.3258 -50.5073 87.3176 -25.8757 5.15039 -5.83998 2.73855 12.4527 -26.6775 6.47849 0.342222 1.21717 19.9914 -4.03001 3.01554 -12.9657 -4.44269 -4.79942 
-5419.88 492.198 -4754.59 96.7352 -41.7464 91.8506 171.388 64.3703 122.666 -5.66485 8.55168 -5.85586 26.3154 -16.0467 -26.1529 7.25069 15.6937 -41.5599 147.556 -43.5582 32.1634 -1.57592 -22.4078 12.6205 134.72 4.85552 1.67623 9.45872 -8.75429 42.9024 1.28332 8.45626 -89.79 9.9608 2.65311 0.199484 -1.70744 2.65933 0.082436 -24.262 2.47044 0.988109 -4.24933 2.47043 0.98812 93.2253 -17.7892 -104.655 44.7637 -7.50452 -26.5768 -16.6385 -34.5478 -31.437 -15.1744 -1.12266 3.4793 -84.218 -51.035 87.54 -25.6373 3.98673 -3.26114 2.42226 11.0853 -25.4066 6.13927 0.296434 0.831141 19.8638 -3.61151 3.58933 -13.0841 -4.22695 -4.59595 
-5293.52 498.285 -4597.43 97.0148 -44.7526 92.486 173.63 72.4867 121.288 -2.69356 5.05426 -15.9707 28.8326 -9.20812 -18.1447 7.13821 14.2781 -39.0417 141.012 -49.4622 29.3859 -1.09372 -27.3337 12.2252 138.346 -3.29089 3.0394 11.6924 -8.62092 42.2728 1.5645 8.47156 -89.74 9.92944 3.2363 0.252424 -1.73748 3.24427 0.109588 -24.3014 3.01068 1.21426 -4.28877 3.01067 1.21425 92.9756 -17.779 -105.273 42.3007 -6.95758 -30.6726 -18.4831 -34.3111 -33.4513 -15.2942 -0.951253 2.08774 -84.1925 -51.6076 87.6429 -26.1118 3.50808 -1.45814 1.28936 9.33133 -22.1815 5.51788 0.302784 1.32835 19.8361 -3.12234 4.09993 -12.9282 -3.95652 -4.13975 
-5228.1 466.803 -4501 99.0453 -48.0271 94.2351 176.947 70.0741 116.569 -2.46469 3.9246 -12.4929 20.643 -11.5901 -21.7059 6.16541 14.7176 -39.7856 134.235 -50.3524 22.8469 -1.73376 -32.1404 9.82083 136.942 -4.05913 3.81552 17.9725 -9.13121 43.1534 1.82007 8.56497 -89.6789 9.7406 3.77342 0.339622 -1.92488 3.78472 0.172967 -24.4988 3.4967 1.45934 -4.48612 3.49671 1.45934 92.9117 -17.6148 -105.506 42.0903 -6.61333 -33.3495 -21.7744 -35.089 -35.9618 -14.0806 -0.684372 0.458652 -84.1423 -52.5157 87.8179 -26.8054 3.23085 -0.60439 0.64229 8.84694 -17.6828 4.76874 0.230091 0.776342 20.2033 -2.63805 4.29943 -12.4163 -3.59774 -3.92938 
-5177.5 449.881 -4419.11 99.271 -50.815 92.6311 177.875 68.8464 112.332 -5.38381 9.07709 -5.41144 13.4678 -17.9013 -31.0558 0.142815 13.7889 -38.3126 130.201 -48.1178 19.4294 -5.55048 -35.8073 3.98182 130.42 -1.67056 3.50667 25.7236 -10.2122 46.7954 1.97502 8.50074 -89.2893 9.85532 4.25892 1.06762 -1.80893 4.30175 0.878808 -24.3862 3.74098 2.29971 -4.37354 3.74098 2.2997 92.8288 -17.903 -105.578 44.4828 -6.97416 -33.4441 -21.2948 -32.9322 -36.6014 -15.3144 -0.976081 2.2566 -84.086 -52.6836 87.9188 -27.1225 2.29086 -0.329468 0.820799 11.273 -14.4755 5.24484 0.558951 5.36278 20.8636 -2.73221 3.47449 -12.8282 -3.3306 -5.14956 
-5126.08 455.168 -4362.43 100.288 -51.9321 91.4855 -179.819 64.4336 110.327 -5.46759 10.887 -4.0531 11.5953 -19.7235 -32.4017 4.19634 13.4725 -37.7122 125.963 -47.4382 14.5803 -6.84116 -38.4171 0.605854 116.312 4.99939 5.4009 23.5305 -10.3547 47.3805 1.95103 8.44553 -88.9575 9.95064 4.36207 1.7127 -1.71386 4.4332 1.51875 -24.2839 3.64566 2.94551 -4.27131 3.64568 2.94551 92.9965 -18.0266 -105.112 46.7978 -9.54682 -31.6587 -18.5387 -32.0843 -35.5952 -16.4767 -0.708243 -0.172735 -84.2554 -52.0769 87.6027 -27.431 2.37038 -0.525676 -0.194977 6.50795 -12.022 4.01558 0.326214 3.12179 20.8007 -2.87762 2.48926 -13.2138 -3.06898 -5.91582 
-5053.38 481.151 -4279.96 100.469 -53.192 90.7821 -179.859 59.4483 112.34 -5.35614 10.7547 -3.77156 16.5154 -20.7337 -32.3364 4.36193 13.7597 -38.1257 122.967 -46.6173 9.67943 -5.07654 -41.359 -0.210441 101.46 12.7188 10.1642 12.984 -9.22725 43.9163 1.74471 8.39347 -88.811 10.0495 4.01803 2.02701 -1.6165 4.10334 1.84799 -24.1739 3.22326 3.14128 -4.16124 3.22327 3.14128 92.9967 -18.2059 -105.031 47.9471 -13.1129 -30.0738 -16.5707 -33.5863 -35.1659 -13.026 -0.553691 -0.621205 -84.2667 -51.5455 87.5257 -27.4481 2.54439 -2.58611 -0.0776522 7.4419 -12.4349 5.38248 0.516088 4.52222 20.7636 -2.36374 1.56979 -14.4733 -2.17838 -6.28357 
-4932.22 497.961 -4132.68 99.8484 -54.3348 90.8608 177.146 50.5573 119.899 -5.76926 9.10682 -4.04064 26.1693 -23.3653 -33.0558 3.72773 14.3938 -39.2544 128.693 -43.8497 10.8629 -3.84948 -46.3554 -0.324233 105.568 11.7144 6.40523 10.6087 -9.20801 43.9751 1.41731 8.37811 -88.9454 10.0891 3.30454 1.8175 -1.57871 3.38131 1.67019 -24.1264 2.6057 2.72674 -4.1138 2.60568 2.72674 93.0298 -18.0337 -105.027 49.3448 -14.478 -27.2497 -17.183 -36.0995 -36.4248 -12.9468 -0.61579 0.237816 -84.4727 -51.317 87.1931 -26.6941 3.60865 -6.38598 0.0614788 9.29987 -14.7896 6.53539 0.652042 5.15787 20.3848 -1.00219 1.15052 -13.8311 -0.818438 -5.60807 
-4791.63 507.72 -3948.23 100.095 -55.8651 93.6427 177.488 32.6367 129.033 -5.94979 9.10983 -4.49631 44.3856 -30.7047 -31.7267 3.32106 13.5978 -37.947 145.955 -35.3672 18.0495 -3.54607 -35.2273 -0.182398 110.223 21.4064 7.97909 7.15142 -8.95741 43.6005 1.0571 8.38034 -89.3237 10.101 2.41466 1.14056 -1.56815 2.46251 1.03312 -24.1121 1.96028 1.81364 -4.09949 1.96027 1.81364 92.9561 -18.4118 -105.039 51.5789 -13.2989 -22.8827 -15.6096 -34.9669 -34.9002 -14.6518 -0.783707 1.04873 -84.4392 -50.5677 87.1544 -25.3154 4.3529 -10.4253 0.572 10.8678 -18.1528 8.75131 0.848238 5.24789 19.4358 1.13829 0.270895 -13.5543 1.41577 -4.43165 
-4633.27 504.05 -3756.78 98.2175 -55.6842 94.5817 -175.474 6.22462 135.569 -4.92296 8.91206 -6.65945 75.7585 -35.9043 -23.5415 4.82913 13.697 -38.0776 170.026 -8.78298 29.9117 -4.19944 -23.7015 0.157716 85.9621 36.2704 19.8545 6.70367 -7.66895 40.5351 0.491677 8.31919 -89.7382 10.2331 1.09928 0.426035 -1.43748 1.11698 0.377234 -23.9747 0.920409 0.736735 -3.96208 0.920413 0.736731 93.1596 -18.5365 -104.492 53.2657 -10.9243 -18.2166 -15.2834 -34.5859 -32.9446 -13.0023 -0.614826 0.303274 -84.4568 -50.0108 87.0603 -23.443 4.06624 -13.9797 2.3239 11.8585 -22.953 10.2367 0.830255 3.92062 18.4235 3.54975 -0.408138 -13.5745 3.89834 -3.70908 
-4457.31 495.428 -3568.53 95.2193 -55.2136 94.0472 -162.58 -24.5763 140.12 -3.30261 9.61682 -10.884 115.192 -27.5181 -12.2513 5.22858 14.1253 -38.7934 -172.08 33.6093 42.8442 -5.30213 -21.9168 0.95583 47.7812 32.0883 29.534 9.85769 -7.75673 40.2782 -0.0554663 8.2597 -90.0073 10.3542 -0.113801 -0.00447454 -1.31669 -0.113902 0.00052713 -23.852 -0.107209 -0.0384668 -3.83934 -0.107198 -0.0384779 93.5771 -18.845 -103.346 54.4681 -7.8242 -13.5651 -13.828 -31.1449 -30.2371 -11.5559 -0.452983 -0.608642 -84.2937 -48.104 87.079 -21.6916 3.62766 -17.2664 4.44202 11.4567 -28.5142 7.23769 0.40897 1.48086 18.2569 5.44893 -1.68799 -13.4067 6.01548 -2.56828 
-4269.87 501.816 -3378.41 91.7202 -55.1513 91.8473 -152.946 -44.2435 140.561 -2.09899 12.4862 -14.4137 136.269 -11.7294 -9.95738 5.44127 14.1693 -38.8694 -167.917 63.9762 55.9077 -5.94239 -22.4846 2.25363 32.9267 21.8006 26.4454 9.40019 -7.59872 39.9379 -0.467428 8.26428 -90.155 10.3445 -1.0021 -0.22094 -1.32605 -1.01085 -0.176622 -23.8636 -0.889361 -0.511911 -3.85092 -0.889371 -0.511919 93.917 -18.6646 -102.595 55.2007 -3.2005 -8.26644 -14.6864 -29.2288 -29.4588 -14.2457 -0.71191 0.59391 -84.0009 -47.0667 87.4071 -18.8815 3.01299 -22.2855 4.99837 10.3847 -32.7677 8.66948 0.437218 1.06017 19.6274 6.96027 -2.39866 -13.1364 7.68624 -2.38681 
-4106.57 521.686 -3203.79 87.891 -54.0475 89.0518 -148.761 -51.29 140.148 -1.20881 14.3784 -16.1642 143.952 -3.24798 -13.0367 5.89852 13.8677 -38.3477 -169.119 78.2986 62.7572 -6.00501 -16.6718 3.74234 31.4734 12.7742 19.7854 8.14458 -7.77716 40.5787 -0.802705 8.26022 -90.2407 10.3516 -1.7093 -0.329383 -1.31822 -1.72213 -0.253812 -23.8606 -1.53128 -0.827979 -3.84797 -1.53127 -0.82797 93.7968 -19.0591 -102.731 55.4219 1.7546 -2.14476 -14.7604 -25.6945 -27.9351 -15.8941 -0.881879 1.27502 -84.0395 -46.6397 87.295 -16.6606 0.951105 -27.1378 7.89976 11.3201 -37.4399 8.94872 0.291013 -0.522072 21.3846 7.52319 -3.04774 -11.6322 8.39968 -2.03738 
-3965.12 525.012 -3054.77 84.7839 -51.2707 86.5764 -145.628 -53.2694 141.739 -0.589517 17.1241 -16.1309 147.653 1.54296 -15.2487 7.13698 14.0091 -38.5695 -160.143 84.0853 54.8108 -5.8347 -15.023 4.13421 31.684 10.2079 15.6288 10.1679 -8.59831 42.4002 -1.10585 8.37579 -90.3765 10.1172 -2.37518 -0.548963 -1.55165 -2.39701 -0.443844 -24.1002 -2.10034 -1.23768 -4.08751 -2.10034 -1.23769 93.6909 -19.3921 -102.855 54.8497 4.61375 3.30855 -15.4812 -26.1733 -27.2501 -16.167 -1.09606 2.68407 -84.2826 -46.2924 86.8686 -17.3453 -1.03626 -31.8157 10.2543 11.725 -42.9158 14.6889 0.663366 0.689835 24.5441 7.57982 -3.30449 -9.56849 8.51852 -1.37251 
-3857.39 494.896 -2957.07 82.4912 -46.6039 85.5047 -141.042 -51.3522 147.106 0.930411 25.0265 -15.542 145.263 5.45718 -15.2466 12.9657 14.1317 -38.7673 -149.622 83.4273 43.1982 -5.3439 -16.7602 2.78868 25.8478 14.313 22.4473 8.93685 -7.39929 39.5415 -1.42892 8.53885 -90.7242 9.7801 -3.17613 -1.18475 -1.88743 -3.22519 -1.0437 -24.4417 -2.67326 -2.08496 -4.42901 -2.67325 -2.08497 94.0352 -19.2549 -102.079 54.9503 6.95125 7.99627 -17.1854 -25.1427 -29.2459 -14.0277 -0.66349 0.332358 -84.8017 -45.6802 85.9664 -17.3836 1.52458 -34.7262 13.4018 13.7076 -48.9557 11.7067 0.323133 -1.0838 28.6852 7.21843 -2.74105 -7.58947 7.97371 -0.451118 
